<svg viewBox="0 0 28 28" fill="none" xmlns="http://www.w3.org/2000/svg">
<path d="M13.9998 3.83317C15.9332 3.83317 17.4998 5.39984 17.4998 7.33317C17.4998 9.2665 15.9332 10.8332 13.9998 10.8332C12.0665 10.8332 10.4998 9.2665 10.4998 7.33317C10.4998 5.39984 12.0665 3.83317 13.9998 3.83317ZM13.9998 18.8332C18.9498 18.8332 24.1665 21.2665 24.1665 22.3332V24.1665H3.83317V22.3332C3.83317 21.2665 9.04984 18.8332 13.9998 18.8332ZM13.9998 0.666504C10.3165 0.666504 7.33317 3.64984 7.33317 7.33317C7.33317 11.0165 10.3165 13.9998 13.9998 13.9998C17.6832 13.9998 20.6665 11.0165 20.6665 7.33317C20.6665 3.64984 17.6832 0.666504 13.9998 0.666504ZM13.9998 15.6665C9.54984 15.6665 0.666504 17.8998 0.666504 22.3332V27.3332H27.3332V22.3332C27.3332 17.8998 18.4498 15.6665 13.9998 15.6665Z" fill="currentColor"/>
</svg>