<svg viewBox="0 0 34 34" fill="none" xmlns="http://www.w3.org/2000/svg"><path d="M17.0002 0.333496C7.80016 0.333496 0.333496 7.80016 0.333496 17.0002C0.333496 26.2002 7.80016 33.6668 17.0002 33.6668C26.2002 33.6668 33.6668 26.2002 33.6668 17.0002C33.6668 7.80016 26.2002 0.333496 17.0002 0.333496ZM17.0002 30.3335C9.65016 30.3335 3.66683 24.3502 3.66683 17.0002C3.66683 9.65016 9.65016 3.66683 17.0002 3.66683C24.3502 3.66683 30.3335 9.65016 30.3335 17.0002C30.3335 24.3502 24.3502 30.3335 17.0002 30.3335ZM24.6502 9.6335L13.6668 20.6168L9.35016 16.3168L7.00016 18.6668L13.6668 25.3335L27.0002 12.0002L24.6502 9.6335Z" fill="currentColor"/></svg>