<svg width="13" height="12" viewBox="0 0 13 12" fill="none" xmlns="http://www.w3.org/2000/svg">
<path fill-rule="evenodd" clip-rule="evenodd" d="M3.36486 2.14245H1.19375V2.1424C0.945854 2.1424 0.716819 2.01023 0.592922 1.79556C0.469026 1.58091 0.469026 1.31646 0.592922 1.1018C0.716824 0.887228 0.945876 0.754961 1.19375 0.754961H3.36486C3.57195 0.375446 3.9376 0.1082 4.36214 0.0262417C4.78656 -0.0556299 5.22547 0.0562405 5.5589 0.331497C5.89231 0.606664 6.08535 1.01638 6.08535 1.44875C6.08535 1.88103 5.89232 2.29075 5.5589 2.566C5.2255 2.84117 4.78659 2.95313 4.36214 2.87117C3.9376 2.78923 3.57193 2.52199 3.36486 2.14245ZM12.4071 1.79567C12.2832 2.01033 12.0542 2.14251 11.8063 2.14251H6.83038C7.0256 1.70063 7.0256 1.19695 6.83038 0.755071H11.8063C12.0542 0.755071 12.2832 0.887335 12.4071 1.10191C12.531 1.31657 12.531 1.58101 12.4071 1.79567ZM8.07211 6.98347C8.41468 6.98365 8.74634 6.86237 9.00801 6.64117C9.26967 6.41988 9.44439 6.11315 9.50133 5.7752C9.55818 5.43733 9.4934 5.09023 9.31859 4.79553C9.14377 4.50092 8.87008 4.27772 8.54625 4.16576C8.22251 4.05372 7.86949 4.06008 7.54993 4.18372C7.23039 4.30735 6.96498 4.54033 6.80088 4.84112H1.19375C0.945876 4.84112 0.716824 4.9733 0.592922 5.18796C0.469026 5.40262 0.469026 5.66698 0.592922 5.88164C0.716819 6.0963 0.945854 6.22848 1.19375 6.22848H6.80088C6.92547 6.4569 7.10926 6.6475 7.33291 6.7804C7.55663 6.91327 7.81193 6.98337 8.0721 6.98346L8.07211 6.98347ZM10.2644 4.84097H11.8056C12.0535 4.84097 12.2825 4.97315 12.4064 5.18781C12.5303 5.40247 12.5303 5.66682 12.4064 5.88148C12.2825 6.09614 12.0535 6.22832 11.8056 6.22832H10.2644C10.4597 5.78653 10.4597 5.28276 10.2644 4.84097ZM4.63608 8.17304C4.37643 8.17269 4.12148 8.2421 3.89785 8.37401C3.6742 8.50593 3.49015 8.69556 3.36486 8.92305H1.19375C0.945876 8.92305 0.716824 9.05523 0.592922 9.26989C0.469026 9.48455 0.469026 9.749 0.592922 9.96366C0.716819 10.1782 0.945854 10.3105 1.19375 10.3105H3.36486C3.52817 10.6116 3.79306 10.8451 4.11224 10.9694C4.43153 11.0936 4.78447 11.1006 5.10838 10.9891C5.43239 10.8777 5.70624 10.6548 5.88132 10.3604C6.05648 10.0659 6.12144 9.71893 6.06477 9.38106C6.00809 9.0432 5.83346 8.73638 5.57188 8.51519C5.31022 8.29398 4.97865 8.17279 4.63608 8.17306L4.63608 8.17304ZM6.83038 8.92698H11.8063C12.0542 8.92698 12.2832 9.05916 12.4071 9.27382C12.531 9.48848 12.531 9.75293 12.4071 9.96759C12.2832 10.1822 12.0542 10.3144 11.8063 10.3144H6.83038C7.0256 9.87255 7.0256 9.36886 6.83038 8.92698Z" fill="currentColor"/>
</svg>
