<svg viewBox="0 0 19 18" fill="none" xmlns="http://www.w3.org/2000/svg">
<path fill-rule="evenodd" clip-rule="evenodd" d="M13.9533 4.05371C16.6283 6.72869 16.6797 11.0241 14.1462 13.7634H15.4323V15.4353H11.2912V11.2942H12.9631V12.5802C14.8536 10.484 14.7764 7.24311 12.7702 5.23687C11.5484 4.01512 9.81224 3.46212 8.11465 3.74505L8.07607 3.75791V2.06033C10.2624 1.7774 12.3972 2.49759 13.9533 4.05371ZM4.05072 13.9562C1.37573 11.2813 1.32429 6.98585 3.85781 4.24657H2.57176V2.5747H6.71284V6.71578H5.04098V5.42973C3.15048 7.526 3.22765 10.7668 5.23388 12.7731C6.45563 13.9948 8.1918 14.5478 9.88939 14.2649L9.92797 14.252V15.9496C7.74168 16.2326 5.60684 15.5124 4.05072 13.9562Z" fill="currentColor"/>
</svg>
