<svg viewBox="0 0 19 18" fill="none" xmlns="http://www.w3.org/2000/svg">
<path d="M14.6653 6.6679H12.6655V5.47472C12.6655 3.73495 11.3924 2.18182 9.65926 2.01517C7.67285 1.82853 5.99974 3.38833 5.99974 5.33474V6.6679H4V16H14.6653V6.6679ZM9.33263 12.6671C8.59939 12.6671 7.99947 12.0672 7.99947 11.3339C7.99947 10.6007 8.59939 10.0008 9.33263 10.0008C10.0659 10.0008 10.6658 10.6007 10.6658 11.3339C10.6658 12.0672 10.0659 12.6671 9.33263 12.6671ZM7.33289 6.6679V5.33474C7.33289 4.22822 8.22611 3.335 9.33263 3.335C10.4392 3.335 11.3324 4.22822 11.3324 5.33474V6.6679H7.33289Z" fill="currentColor"/>
</svg>
