<svg viewBox="0 0 36 29" fill="none" xmlns="http://www.w3.org/2000/svg">
<path d="M22.9765 28.2706L20.8588 25.7295C26.1529 22.7647 28.9059 19.2706 28.9059 15.5647C28.9059 13.8706 28.8 13.7647 25.5177 13.0236C22.6588 12.2824 20.7529 9.8471 20.7529 6.88239C20.7529 2.96475 23.9294 4.09064e-05 27.9529 4.12582e-05C32.6118 4.16655e-05 36 4.02357 36 9.52946C36 17.3647 31.1294 24.4589 22.9765 28.2706ZM2.22353 28.2706L0.105885 25.7295C5.4 22.7647 8.15294 19.2706 8.15294 15.5647C8.15294 13.8706 8.04706 13.7647 4.76471 13.0236C1.90589 12.2824 1.61064e-06 9.8471 1.86982e-06 6.88239C2.21231e-06 2.96474 3.17647 3.90921e-05 7.20001 3.94439e-05C11.8588 3.98512e-05 15.2471 4.02357 15.2471 9.52945C15.2471 17.3647 10.3765 24.4589 2.22353 28.2706Z" fill="black"/>
</svg>
