<svg viewBox="0 0 36 29" fill="none" xmlns="http://www.w3.org/2000/svg">
<path d="M13.0235 0L15.1412 2.54118C9.84706 5.50588 7.09412 9 7.09412 12.7059C7.09412 14.4 7.2 14.5059 10.4824 15.2471C13.3412 15.9882 15.2471 18.4235 15.2471 21.3882C15.2471 25.3059 12.0706 28.2706 8.04706 28.2706C3.38824 28.2706 0 24.2471 0 18.7412C0 10.9059 4.87059 3.81177 13.0235 0ZM33.7765 0L35.8941 2.54118C30.6 5.50588 27.8471 9 27.8471 12.7059C27.8471 14.4 27.9529 14.5059 31.2353 15.2471C34.0941 15.9882 36 18.4235 36 21.3882C36 25.3059 32.8235 28.2706 28.8 28.2706C24.1412 28.2706 20.7529 24.2471 20.7529 18.7412C20.7529 10.9059 25.6235 3.81177 33.7765 0Z" fill="black"/>
</svg>
