<svg viewBox="0 0 30 30" fill="none" xmlns="http://www.w3.org/2000/svg">
<path fill-rule="evenodd" clip-rule="evenodd" d="M0 15C0 6.71546 6.71546 0 15 0C23.2845 0.00102354 30 6.71546 30 15C30 23.2845 23.2845 30 15 30C6.71546 30 0 23.2845 0 15ZM21.301 22.0557C21.5422 21.9974 21.7502 21.8454 21.8793 21.6335C22.1495 21.1934 22.0093 20.6192 21.5691 20.3479C17.6152 17.9324 12.7135 17.3704 7.00005 18.6755C6.67156 18.7472 6.40686 18.9897 6.30679 19.3107C6.20673 19.6317 6.28671 19.9817 6.51627 20.2273C6.74582 20.473 7.0896 20.5765 7.41663 20.4984C12.6377 19.306 17.0717 19.7921 20.5937 21.9447C20.8054 22.0741 21.0599 22.1141 21.301 22.0557ZM23.7145 17.5506C23.3763 18.1009 22.6562 18.2732 22.1055 17.9354C18.0748 15.4574 11.9274 14.7399 7.15874 16.1872C6.54088 16.3749 5.88787 16.0262 5.70019 15.4083C5.51252 14.7904 5.86125 14.1374 6.47911 13.9498C11.9264 12.2967 18.6992 13.0971 23.3286 15.9426C23.8793 16.2814 24.0533 17.0009 23.7145 17.5506ZM6.44524 11.562C11.0614 10.1618 19.0368 10.4259 23.8721 13.2969C24.5382 13.6888 25.3959 13.4682 25.7903 12.8035C26.1847 12.1387 25.9673 11.2802 25.304 10.8834C19.738 7.57938 10.9304 7.26925 5.63152 8.87724C4.89013 9.10253 4.47143 9.88588 4.69601 10.6275C4.92016 11.3685 5.7042 11.7872 6.44524 11.562Z" fill="currentColor"/>
</svg>
